{
	"patcher" : 	{
		"fileversion" : 1,
		"appversion" : 		{
			"major" : 6,
			"minor" : 1,
			"revision" : 6,
			"architecture" : "x86"
		}
,
		"rect" : [ 41.0, 89.0, 1275.0, 763.0 ],
		"bglocked" : 0,
		"openinpresentation" : 0,
		"default_fontsize" : 12.0,
		"default_fontface" : 0,
		"default_fontname" : "Lucida Console",
		"gridonopen" : 0,
		"gridsize" : [ 15.0, 15.0 ],
		"gridsnaponopen" : 0,
		"statusbarvisible" : 2,
		"toolbarvisible" : 1,
		"boxanimatetime" : 200,
		"imprint" : 0,
		"enablehscroll" : 1,
		"enablevscroll" : 1,
		"devicewidth" : 0.0,
		"description" : "",
		"digest" : "",
		"tags" : "",
		"boxes" : [ 			{
				"box" : 				{
					"id" : "obj-53",
					"maxclass" : "toggle",
					"numinlets" : 1,
					"numoutlets" : 1,
					"outlettype" : [ "int" ],
					"parameter_enable" : 0,
					"patching_rect" : [ 547.691895, 24.988462, 20.0, 20.0 ]
				}

			}
, 			{
				"box" : 				{
					"fontname" : "Lucida Console",
					"fontsize" : 12.0,
					"id" : "obj-54",
					"maxclass" : "newobj",
					"numinlets" : 2,
					"numoutlets" : 1,
					"outlettype" : [ "bang" ],
					"patching_rect" : [ 547.691895, 62.0, 76.0, 18.0 ],
					"text" : "metro 150"
				}

			}
, 			{
				"box" : 				{
					"id" : "obj-55",
					"maxclass" : "toggle",
					"numinlets" : 1,
					"numoutlets" : 1,
					"outlettype" : [ "int" ],
					"parameter_enable" : 0,
					"patching_rect" : [ 547.691895, 86.686188, 20.0, 20.0 ]
				}

			}
, 			{
				"box" : 				{
					"id" : "obj-50",
					"maxclass" : "toggle",
					"numinlets" : 1,
					"numoutlets" : 1,
					"outlettype" : [ "int" ],
					"parameter_enable" : 0,
					"patching_rect" : [ 501.305115, 117.0, 20.0, 20.0 ]
				}

			}
, 			{
				"box" : 				{
					"fontname" : "Lucida Console",
					"fontsize" : 12.0,
					"id" : "obj-51",
					"maxclass" : "newobj",
					"numinlets" : 2,
					"numoutlets" : 1,
					"outlettype" : [ "bang" ],
					"patching_rect" : [ 501.305115, 154.011536, 76.0, 18.0 ],
					"text" : "metro 400"
				}

			}
, 			{
				"box" : 				{
					"id" : "obj-52",
					"maxclass" : "toggle",
					"numinlets" : 1,
					"numoutlets" : 1,
					"outlettype" : [ "int" ],
					"parameter_enable" : 0,
					"patching_rect" : [ 501.305115, 188.011536, 20.0, 20.0 ]
				}

			}
, 			{
				"box" : 				{
					"id" : "obj-47",
					"maxclass" : "toggle",
					"numinlets" : 1,
					"numoutlets" : 1,
					"outlettype" : [ "int" ],
					"parameter_enable" : 0,
					"patching_rect" : [ 404.219696, 99.988464, 20.0, 20.0 ]
				}

			}
, 			{
				"box" : 				{
					"fontname" : "Lucida Console",
					"fontsize" : 12.0,
					"id" : "obj-48",
					"maxclass" : "newobj",
					"numinlets" : 2,
					"numoutlets" : 1,
					"outlettype" : [ "bang" ],
					"patching_rect" : [ 404.219696, 137.0, 76.0, 18.0 ],
					"text" : "metro 500"
				}

			}
, 			{
				"box" : 				{
					"id" : "obj-49",
					"maxclass" : "toggle",
					"numinlets" : 1,
					"numoutlets" : 1,
					"outlettype" : [ "int" ],
					"parameter_enable" : 0,
					"patching_rect" : [ 404.219696, 171.0, 20.0, 20.0 ]
				}

			}
, 			{
				"box" : 				{
					"id" : "obj-46",
					"maxclass" : "toggle",
					"numinlets" : 1,
					"numoutlets" : 1,
					"outlettype" : [ "int" ],
					"parameter_enable" : 0,
					"patching_rect" : [ 645.666931, 14.902103, 20.0, 20.0 ]
				}

			}
, 			{
				"box" : 				{
					"fontname" : "Lucida Console",
					"fontsize" : 12.0,
					"id" : "obj-44",
					"maxclass" : "newobj",
					"numinlets" : 2,
					"numoutlets" : 1,
					"outlettype" : [ "bang" ],
					"patching_rect" : [ 645.666931, 51.913639, 83.0, 18.0 ],
					"text" : "metro 1000"
				}

			}
, 			{
				"box" : 				{
					"id" : "obj-43",
					"maxclass" : "toggle",
					"numinlets" : 1,
					"numoutlets" : 1,
					"outlettype" : [ "int" ],
					"parameter_enable" : 0,
					"patching_rect" : [ 645.666931, 85.913643, 20.0, 20.0 ]
				}

			}
, 			{
				"box" : 				{
					"fontname" : "Lucida Console",
					"fontsize" : 12.0,
					"id" : "obj-41",
					"maxclass" : "flonum",
					"numinlets" : 1,
					"numoutlets" : 2,
					"outlettype" : [ "float", "bang" ],
					"parameter_enable" : 0,
					"patching_rect" : [ 602.29364, 268.708252, 50.0, 18.0 ]
				}

			}
, 			{
				"box" : 				{
					"fontname" : "Lucida Console",
					"fontsize" : 12.0,
					"id" : "obj-39",
					"maxclass" : "flonum",
					"numinlets" : 1,
					"numoutlets" : 2,
					"outlettype" : [ "float", "bang" ],
					"parameter_enable" : 0,
					"patching_rect" : [ 535.855042, 268.708252, 50.0, 18.0 ]
				}

			}
, 			{
				"box" : 				{
					"id" : "obj-37",
					"maxclass" : "button",
					"numinlets" : 1,
					"numoutlets" : 1,
					"outlettype" : [ "bang" ],
					"patching_rect" : [ 431.540253, 329.650635, 20.0, 20.0 ]
				}

			}
, 			{
				"box" : 				{
					"fontname" : "Lucida Console",
					"fontsize" : 12.0,
					"id" : "obj-34",
					"maxclass" : "newobj",
					"numinlets" : 4,
					"numoutlets" : 1,
					"outlettype" : [ "" ],
					"patching_rect" : [ 448.305115, 369.448151, 126.0, 18.0 ],
					"text" : "pack 0. 0. 0. 0."
				}

			}
, 			{
				"box" : 				{
					"fontname" : "Lucida Console",
					"fontsize" : 12.0,
					"id" : "obj-33",
					"maxclass" : "flonum",
					"numinlets" : 1,
					"numoutlets" : 2,
					"outlettype" : [ "float", "bang" ],
					"parameter_enable" : 0,
					"patching_rect" : [ 468.893402, 268.708252, 50.0, 18.0 ]
				}

			}
, 			{
				"box" : 				{
					"fontname" : "Lucida Console",
					"fontsize" : 12.0,
					"id" : "obj-32",
					"maxclass" : "message",
					"numinlets" : 2,
					"numoutlets" : 1,
					"outlettype" : [ "" ],
					"patching_rect" : [ 438.503845, 434.04892, 148.0, 16.0 ],
					"text" : "bgcolor $1 $2 $3 $4"
				}

			}
, 			{
				"box" : 				{
					"fontname" : "Lucida Console",
					"fontsize" : 12.0,
					"id" : "obj-31",
					"maxclass" : "flonum",
					"numinlets" : 1,
					"numoutlets" : 2,
					"outlettype" : [ "float", "bang" ],
					"parameter_enable" : 0,
					"patching_rect" : [ 404.219696, 268.708252, 50.0, 18.0 ]
				}

			}
, 			{
				"box" : 				{
					"bgcolor" : [ 1.0, 1.0, 0.0, 0.0 ],
					"id" : "obj-17",
					"maxclass" : "panel",
					"numinlets" : 1,
					"numoutlets" : 0,
					"patching_rect" : [ 242.84166, 197.696716, 128.0, 128.0 ]
				}

			}
, 			{
				"box" : 				{
					"bgcolor" : [ 0.0, 0.0, 1.0, 0.1 ],
					"id" : "obj-8",
					"maxclass" : "panel",
					"numinlets" : 1,
					"numoutlets" : 0,
					"patching_rect" : [ 207.0, 191.0, 128.0, 128.0 ]
				}

			}
, 			{
				"box" : 				{
					"bgcolor" : [ 1.0, 1.0, 0.0, 1.0 ],
					"id" : "obj-7",
					"maxclass" : "panel",
					"numinlets" : 1,
					"numoutlets" : 0,
					"patching_rect" : [ 151.0, 117.0, 128.0, 128.0 ]
				}

			}
, 			{
				"box" : 				{
					"attr" : "bgcolor",
					"fontname" : "Lucida Console",
					"fontsize" : 12.0,
					"id" : "obj-9",
					"maxclass" : "attrui",
					"numinlets" : 1,
					"numoutlets" : 1,
					"outlettype" : [ "" ],
					"patching_rect" : [ 151.0, 62.0, 150.0, 18.0 ]
				}

			}
, 			{
				"box" : 				{
					"attr" : "bgcolor",
					"fontname" : "Lucida Console",
					"fontsize" : 12.0,
					"id" : "obj-12",
					"maxclass" : "attrui",
					"numinlets" : 1,
					"numoutlets" : 1,
					"outlettype" : [ "" ],
					"patching_rect" : [ 319.0, 62.0, 150.0, 18.0 ]
				}

			}
 ],
		"lines" : [ 			{
				"patchline" : 				{
					"destination" : [ "obj-8", 0 ],
					"disabled" : 0,
					"hidden" : 0,
					"source" : [ "obj-12", 0 ]
				}

			}
, 			{
				"patchline" : 				{
					"destination" : [ "obj-34", 0 ],
					"disabled" : 0,
					"hidden" : 0,
					"source" : [ "obj-31", 0 ]
				}

			}
, 			{
				"patchline" : 				{
					"destination" : [ "obj-17", 0 ],
					"disabled" : 0,
					"hidden" : 0,
					"source" : [ "obj-32", 0 ]
				}

			}
, 			{
				"patchline" : 				{
					"destination" : [ "obj-34", 1 ],
					"disabled" : 0,
					"hidden" : 0,
					"source" : [ "obj-33", 0 ]
				}

			}
, 			{
				"patchline" : 				{
					"destination" : [ "obj-37", 0 ],
					"disabled" : 0,
					"hidden" : 0,
					"source" : [ "obj-33", 0 ]
				}

			}
, 			{
				"patchline" : 				{
					"destination" : [ "obj-32", 0 ],
					"disabled" : 0,
					"hidden" : 0,
					"source" : [ "obj-34", 0 ]
				}

			}
, 			{
				"patchline" : 				{
					"destination" : [ "obj-34", 0 ],
					"disabled" : 0,
					"hidden" : 0,
					"source" : [ "obj-37", 0 ]
				}

			}
, 			{
				"patchline" : 				{
					"destination" : [ "obj-34", 2 ],
					"disabled" : 0,
					"hidden" : 0,
					"source" : [ "obj-39", 0 ]
				}

			}
, 			{
				"patchline" : 				{
					"destination" : [ "obj-37", 0 ],
					"disabled" : 0,
					"hidden" : 0,
					"source" : [ "obj-39", 0 ]
				}

			}
, 			{
				"patchline" : 				{
					"destination" : [ "obj-34", 3 ],
					"disabled" : 0,
					"hidden" : 0,
					"source" : [ "obj-41", 0 ]
				}

			}
, 			{
				"patchline" : 				{
					"destination" : [ "obj-37", 0 ],
					"disabled" : 0,
					"hidden" : 0,
					"source" : [ "obj-41", 0 ]
				}

			}
, 			{
				"patchline" : 				{
					"destination" : [ "obj-41", 0 ],
					"disabled" : 0,
					"hidden" : 0,
					"source" : [ "obj-43", 0 ]
				}

			}
, 			{
				"patchline" : 				{
					"destination" : [ "obj-43", 0 ],
					"disabled" : 0,
					"hidden" : 0,
					"source" : [ "obj-44", 0 ]
				}

			}
, 			{
				"patchline" : 				{
					"destination" : [ "obj-44", 0 ],
					"disabled" : 0,
					"hidden" : 0,
					"source" : [ "obj-46", 0 ]
				}

			}
, 			{
				"patchline" : 				{
					"destination" : [ "obj-48", 0 ],
					"disabled" : 0,
					"hidden" : 0,
					"source" : [ "obj-47", 0 ]
				}

			}
, 			{
				"patchline" : 				{
					"destination" : [ "obj-49", 0 ],
					"disabled" : 0,
					"hidden" : 0,
					"source" : [ "obj-48", 0 ]
				}

			}
, 			{
				"patchline" : 				{
					"destination" : [ "obj-31", 0 ],
					"disabled" : 0,
					"hidden" : 0,
					"source" : [ "obj-49", 0 ]
				}

			}
, 			{
				"patchline" : 				{
					"destination" : [ "obj-51", 0 ],
					"disabled" : 0,
					"hidden" : 0,
					"source" : [ "obj-50", 0 ]
				}

			}
, 			{
				"patchline" : 				{
					"destination" : [ "obj-52", 0 ],
					"disabled" : 0,
					"hidden" : 0,
					"source" : [ "obj-51", 0 ]
				}

			}
, 			{
				"patchline" : 				{
					"destination" : [ "obj-33", 0 ],
					"disabled" : 0,
					"hidden" : 0,
					"source" : [ "obj-52", 0 ]
				}

			}
, 			{
				"patchline" : 				{
					"destination" : [ "obj-54", 0 ],
					"disabled" : 0,
					"hidden" : 0,
					"source" : [ "obj-53", 0 ]
				}

			}
, 			{
				"patchline" : 				{
					"destination" : [ "obj-55", 0 ],
					"disabled" : 0,
					"hidden" : 0,
					"source" : [ "obj-54", 0 ]
				}

			}
, 			{
				"patchline" : 				{
					"destination" : [ "obj-39", 0 ],
					"disabled" : 0,
					"hidden" : 0,
					"source" : [ "obj-55", 0 ]
				}

			}
, 			{
				"patchline" : 				{
					"destination" : [ "obj-7", 0 ],
					"disabled" : 0,
					"hidden" : 0,
					"source" : [ "obj-9", 0 ]
				}

			}
 ],
		"dependency_cache" : [ 			{
				"name" : "attrui.mxe",
				"type" : "iLaF"
			}
 ]
	}

}
